<?xml version="1.0" encoding="UTF-8"?>
<svg version="1.1" xmlns="http://www.w3.org/2000/svg" width="400" height="400">
<path d="M0 0 C132 0 264 0 400 0 C400 132 400 264 400 400 C268 400 136 400 0 400 C0 268 0 136 0 0 Z " fill="#FFFFFF" transform="translate(0,0)"/>
<path d="M0 0 C9.80469061 8.76676495 17.07164793 19.76441723 18.30322266 33.14794922 C19.16301759 49.07020971 16.53185802 64.31134678 6.09277344 76.89355469 C2.57470179 80.7655152 -1.11291542 84.45253495 -4.88769531 88.07324219 C-3.84871094 88.63011719 -2.80972656 89.18699219 -1.73925781 89.76074219 C10.63015608 96.48596134 24.33246827 103.94424511 29.63574219 117.90527344 C31.45195851 126.167569 31.07881778 134.35883993 26.77636719 141.71386719 C10.73018073 164.46479822 -11.52167902 173.10044062 -37.88769531 177.82324219 C-48.43818974 179.62352497 -58.87306401 180.31880465 -69.57519531 180.44824219 C-71.35120117 180.50431641 -71.35120117 180.50431641 -73.16308594 180.56152344 C-80.47732387 180.63528046 -84.50140712 180.16490872 -89.88769531 175.07324219 C-93.88395068 169.7449017 -94.01461004 164.51705854 -94.02050781 158.01855469 C-94.02196304 157.33425385 -94.02341827 156.649953 -94.0249176 155.94491577 C-94.02717441 153.69596968 -94.02083204 151.44717352 -94.01269531 149.19824219 C-94.01081207 148.41505615 -94.00892883 147.63187012 -94.00698853 146.82495117 C-93.93668925 121.70552603 -92.81227213 96.70938127 -91.24789429 71.64440918 C-90.45492016 58.92490891 -89.777549 46.21318523 -89.35253906 33.47558594 C-89.31197891 32.28411453 -89.27141876 31.09264313 -89.22962952 29.86506653 C-89.03664353 24.1064564 -88.86136949 18.34799106 -88.71020508 12.58813477 C-88.6447653 10.50503307 -88.57894869 8.42194317 -88.51269531 6.33886719 C-88.49395859 5.39949814 -88.47522186 4.46012909 -88.45591736 3.49229431 C-88.23853251 -2.81693257 -87.55322462 -8.2612285 -82.88769531 -12.92675781 C-80.72095783 -13.52814976 -78.52758166 -14.03547594 -76.32519531 -14.48925781 C-75.14828125 -14.73804687 -73.97136719 -14.98683594 -72.75878906 -15.24316406 C-46.35325035 -19.90609976 -21.01864753 -17.82659328 0 0 Z " fill="#3F48CC" transform="translate(141.8876953125,134.9267578125)"/>
<path d="M0 0 C0.62938477 0.20931152 1.25876953 0.41862305 1.90722656 0.63427734 C26.8473433 9.07711035 26.8473433 9.07711035 32 19 C33.02558505 23.65519463 32.69530359 26.87312867 30.1875 30.9375 C26.54696418 34.37000521 23.91493188 35.66833223 18.84765625 35.5859375 C14.36975425 34.66455849 10.66488883 32.36272683 6.72387695 30.14501953 C-3.38254057 24.47756335 -13.26817404 21.2216151 -25 23 C-38.48549398 27.99812015 -47.19469691 41.62235513 -55 53 C-55.44021484 53.63856934 -55.88042969 54.27713867 -56.33398438 54.93505859 C-71.94017606 77.87196139 -79.12624203 102.77697249 -79.25 130.375 C-79.270625 131.51710937 -79.29125 132.65921875 -79.3125 133.8359375 C-79.36626045 145.66323682 -77.87073085 155.98948985 -69.375 164.6875 C-62.52850831 170.02782748 -53.54191575 170.5302614 -45.1875 170.4375 C-44.22553711 170.42992676 -43.26357422 170.42235352 -42.27246094 170.41455078 C-26.89223047 170.05994096 -14.66322374 164.16321639 -3.453125 153.67578125 C6.43173885 142.89372434 11.49466416 129.70325701 16 116 C-2.34386325 117.91952662 -19.8442702 120.13488162 -37.03125 127.06958008 C-41.98744362 128.9791651 -46.69192148 129.73579276 -52 129 C-55.33600367 126.94161475 -56.8262176 125.2606736 -59 122 C-59.76467769 118.20602224 -59.7422251 114.61850848 -58.11328125 111.06640625 C-48.78295646 98.48587823 -26.03762633 95.42024331 -11.5625 93.25 C-8.37962986 92.78512278 -5.19513655 92.37120584 -2 92 C-1.19651123 91.9057373 -0.39302246 91.81147461 0.43481445 91.71435547 C8.28405126 90.89609239 16.14136343 90.71274654 24.02661133 90.64990234 C25.55964183 90.63320159 27.0925902 90.60573038 28.62524414 90.56787109 C30.87165347 90.51299333 33.1162917 90.49123813 35.36328125 90.4765625 C36.04151443 90.45389313 36.71974762 90.43122375 37.41853333 90.40786743 C42.98478808 90.43247245 45.22757492 92.21724341 49 96 C50.72320188 99.44640377 50.3723512 103.2242282 50 107 C48.37599816 110.63467079 47.33886956 111.77408696 44 114 C43.15063606 115.95475347 43.15063606 115.95475347 42.640625 118.26171875 C42.41584473 119.12611572 42.19106445 119.9905127 41.95947266 120.88110352 C41.60828369 122.27026978 41.60828369 122.27026978 41.25 123.6875 C34.6935344 147.94724795 20.86888135 170.72452296 -0.9375 184.25 C-20.68240807 195.40479157 -44.52188385 200.36732591 -66.875 194.375 C-80.98758378 189.45724075 -91.03215809 182.32038514 -98 169 C-103.60165652 155.86049434 -105.41984101 143.83627762 -105.375 129.625 C-105.3737915 128.91657959 -105.37258301 128.20815918 -105.37133789 127.47827148 C-105.31642873 115.58708953 -104.34326581 104.45012444 -101 93 C-100.73155273 92.06816895 -100.46310547 91.13633789 -100.18652344 90.17626953 C-90.57519287 57.64356535 -72.37410608 19.98595117 -41.625 2.33203125 C-40.75875 1.89246094 -39.8925 1.45289062 -39 1 C-38.154375 0.57074219 -37.30875 0.14148438 -36.4375 -0.30078125 C-24.86719569 -5.31113624 -11.69178458 -3.8924021 0 0 Z " fill="#3F48CC" transform="translate(298,121)"/>
<path d="M0 0 C4.39546883 -0.14752942 8.79028616 -0.23481071 13.1875 -0.3125 C15.02731445 -0.3753418 15.02731445 -0.3753418 16.90429688 -0.43945312 C29.81637935 -0.60979722 40.55623676 3.07168582 50 12 C56.3277506 18.37633218 59.27945426 22.96733608 59.375 32.1875 C59.28911109 43.06896452 55.99532541 49.92085218 48.48046875 57.7421875 C37.39068358 67.83651164 24.37639651 70.66290587 9.75 70.25 C8.51636719 70.23195313 7.28273438 70.21390625 6.01171875 70.1953125 C3.00696209 70.14872713 0.00392326 70.08333547 -3 70 C-2.94465088 69.08750488 -2.88930176 68.17500977 -2.83227539 67.23486328 C-1.48931881 44.82803103 -0.52857715 22.44089313 0 0 Z " fill="#FFFFFF" transform="translate(77,143)"/>
<path d="M0 0 C25.14134392 -0.55704602 54.23159109 0.93515236 74 19 C75.25 22.25 75.25 22.25 75 26 C68.84707895 36.85306908 54.40159364 43.42561755 43 47 C31.06515288 50.06998062 18.8384304 52.21101814 6.5 52.0625 C5.77296875 52.05798828 5.0459375 52.05347656 4.296875 52.04882812 C2.53121319 52.03721193 0.7655947 52.01928441 -1 52 C-1.14759932 34.64004939 -0.76475342 17.3432246 0 0 Z " fill="#FFFFFF" transform="translate(73,238)"/>
</svg>
